<svg width="24" height="24" viewBox="0 0 24 24" fill="none" xmlns="http://www.w3.org/2000/svg">
<g id="Icon/Edit">
<g id="Icon">
<path d="M20.7604 7.3305L16.6695 3.23955C16.5161 3.08617 16.308 3 16.091 3C15.8741 3 15.666 3.08617 15.5126 3.23955L3.23973 15.5124C3.08628 15.6658 3.00005 15.8739 3 16.0909V20.1818C3 20.3988 3.0862 20.6069 3.23964 20.7604C3.39308 20.9138 3.60119 21 3.81819 21H7.90914C8.12612 21 8.33419 20.9137 8.4876 20.7603L20.7604 8.48742C20.9138 8.33399 21 8.12592 21 7.90896C21 7.69201 20.9138 7.48394 20.7604 7.3305ZM7.57041 19.3636H4.63638V16.4296L13.6365 7.4295L16.5705 10.3635L7.57041 19.3636ZM17.7274 9.20661L14.7934 6.27258L16.091 4.97494L19.0251 7.90896L17.7274 9.20661Z" fill="white"/>
<path d="M20.7604 7.3305L16.6695 3.23955C16.5161 3.08617 16.308 3 16.091 3C15.8741 3 15.666 3.08617 15.5126 3.23955L3.23973 15.5124C3.08628 15.6658 3.00005 15.8739 3 16.0909V20.1818C3 20.3988 3.0862 20.6069 3.23964 20.7604C3.39308 20.9138 3.60119 21 3.81819 21H7.90914C8.12612 21 8.33419 20.9137 8.4876 20.7603L20.7604 8.48742C20.9138 8.33399 21 8.12592 21 7.90896C21 7.69201 20.9138 7.48394 20.7604 7.3305ZM7.57041 19.3636H4.63638V16.4296L13.6365 7.4295L16.5705 10.3635L7.57041 19.3636ZM17.7274 9.20661L14.7934 6.27258L16.091 4.97494L19.0251 7.90896L17.7274 9.20661Z" fill="url(#paint0_linear_254_4568)"/>
</g>
</g>
<defs>
<linearGradient id="paint0_linear_254_4568" x1="12" y1="3" x2="12" y2="21" gradientUnits="userSpaceOnUse">
<stop stop-color="white"/>
<stop offset="1" stop-color="white" stop-opacity="0"/>
</linearGradient>
</defs>
</svg>
